<?xml version="1.0" encoding="utf-8"?>
<!-- Generator: Adobe Illustrator 19.2.1, SVG Export Plug-In . SVG Version: 6.00 Build 0)  -->
<svg version="1.1" id="图层_1" xmlns="http://www.w3.org/2000/svg" xmlns:xlink="http://www.w3.org/1999/xlink" x="0px" y="0px"
	 viewBox="0 0 48 48" style="enable-background:new 0 0 48 48;" xml:space="preserve">
<style type="text/css">
	.st0{fill:#92969C;}
</style>
<path class="st0" d="M47.7,23.3L26.1,1.7c-1.1-1.1-3.1-1.1-4.2,0L0.3,23.3c-0.4,0.4-0.4,1,0,1.4s1,0.4,1.4,0l2.9-2.9v20
	c0,2.9,2.4,5.3,5.3,5.3h7.6c0.6,0,1-0.4,1-1V34.4c0-0.2,0.1-0.3,0.3-0.3h10.4c0.6,0,1-0.4,1-1s-0.4-1-1-1H18.8c-1.3,0-2.3,1-2.3,2.3
	v10.7H9.9c-1.8,0-3.3-1.5-3.3-3.3c0,0,0-21.9-0.1-22L23.3,3.1c0.4-0.4,1-0.4,1.4,0l16.8,16.8c0,0.1-0.1,22-0.1,22
	c0,1.8-1.5,3.3-3.3,3.3h-7.6c-0.6,0-1,0.4-1,1s0.4,1,1,1h7.6c2.9,0,5.3-2.4,5.3-5.3v-20l2.9,2.9c0.2,0.2,0.5,0.3,0.7,0.3
	s0.5-0.1,0.7-0.3C48.1,24.3,48.1,23.7,47.7,23.3z"/>
</svg>
