<?xml version="1.0" encoding="utf-8"?>
<!-- Generator: Adobe Illustrator 19.2.1, SVG Export Plug-In . SVG Version: 6.00 Build 0)  -->
<svg version="1.1" id="图层_1" xmlns="http://www.w3.org/2000/svg" xmlns:xlink="http://www.w3.org/1999/xlink" x="0px" y="0px"
	 viewBox="0 0 48 48" style="enable-background:new 0 0 48 48;" xml:space="preserve">
<style type="text/css">
	.st0{fill:#92969C;}
</style>
<g>
	<g>
		<path class="st0" d="M28.5,29.5c7.3,0,13.3,6,13.3,13.3v0.9c0,2.4-7.4,2.4-13.3,2.4h-9.1C13,46,6.2,46,6.2,43.6v-0.9
			c0-7.3,5.9-13.2,13.3-13.2H28.5z M28.5,27.6h-9.1c-8.4,0-15.3,6.8-15.3,15.2v0.9c0,4.4,6.7,4.4,15.3,4.4h9.1
			c8.2,0,15.3,0,15.3-4.4v-0.9C43.8,34.4,36.9,27.6,28.5,27.6L28.5,27.6z"/>
	</g>
	<g>
		<path class="st0" d="M24,24.9c-6.8,0-12.3-5.6-12.3-12.4S17.2,0.1,24,0.1s12.3,5.6,12.3,12.4S30.8,24.9,24,24.9z M24,2
			c-5.7,0-10.3,4.7-10.3,10.4S18.3,22.8,24,22.8s10.3-4.7,10.3-10.4S29.7,2,24,2z"/>
	</g>
	<g>
		<path class="st0" d="M24,19.7c-2.3,0-4.3-1-5.7-2.8c-0.3-0.4-0.2-0.9,0.1-1.1c0.3-0.3,0.9-0.2,1.1,0.1c1.1,1.4,2.7,2.2,4.5,2.2
			s3.4-0.8,4.5-2.2c0.3-0.4,0.8-0.4,1.1-0.1c0.3,0.3,0.4,0.8,0.1,1.1C28.3,18.7,26.3,19.7,24,19.7z"/>
	</g>
</g>
</svg>
