<?xml version="1.0" encoding="utf-8"?>
<!-- Generator: Adobe Illustrator 19.2.1, SVG Export Plug-In . SVG Version: 6.00 Build 0)  -->
<svg version="1.1" id="图层_1" xmlns="http://www.w3.org/2000/svg" xmlns:xlink="http://www.w3.org/1999/xlink" x="0px" y="0px"
	 viewBox="0 0 48 48" style="enable-background:new 0 0 48 48;" xml:space="preserve">
<style type="text/css">
	.st0{fill:#92969C;}
</style>
<g>
	<path class="st0" d="M47,46.7H1c-0.6,0-1-0.4-1-1v0c0-0.6,0.4-1,1-1h46c0.6,0,1,0.4,1,1v0C48,46.3,47.6,46.7,47,46.7z"/>
	<g>
		<g>
			<path class="st0" d="M11.3,40.9H4.9c-1.7,0-3-1.3-3-3V21c0-1.7,1.3-3,3-3h6.4c1.7,0,3,1.3,3,3v16.9C14.3,39.5,13,40.9,11.3,40.9z
				 M4.9,20c-0.6,0-1,0.4-1,1v16.9c0,0.6,0.4,1,1,1h6.4c0.6,0,1-0.4,1-1V21c0-0.6-0.4-1-1-1H4.9z"/>
		</g>
		<g>
			<path class="st0" d="M27.2,40.9h-6.4c-1.7,0-3-1.3-3-3V12.6c0-1.7,1.3-3,3-3h6.4c1.7,0,3,1.3,3,3v25.2
				C30.2,39.5,28.9,40.9,27.2,40.9z M20.8,11.6c-0.6,0-1,0.4-1,1v25.2c0,0.6,0.4,1,1,1h6.4c0.6,0,1-0.4,1-1V12.6c0-0.6-0.4-1-1-1
				H20.8z"/>
		</g>
		<g>
			<path class="st0" d="M43.1,40.9h-6.4c-1.7,0-3-1.3-3-3V4.3c0-1.7,1.3-3,3-3h6.4c1.7,0,3,1.3,3,3v33.6
				C46.1,39.5,44.8,40.9,43.1,40.9z M36.7,3.3c-0.6,0-1,0.4-1,1v33.6c0,0.6,0.4,1,1,1h6.4c0.6,0,1-0.4,1-1V4.3c0-0.6-0.4-1-1-1H36.7
				z"/>
		</g>
		<path class="st0" d="M41.2,6.1H38c-0.3,0-0.6,0.3-0.6,0.6v0v5.2c0,0.3,0.3,0.6,0.6,0.6s0.6-0.3,0.6-0.6V7.3h2.5
			c0.3,0,0.6-0.3,0.6-0.6v0C41.8,6.4,41.5,6.1,41.2,6.1z"/>
		<circle class="st0" cx="38" cy="13.8" r="0.6"/>
	</g>
</g>
</svg>
