<?xml version="1.0" encoding="utf-8"?>
<!-- Generator: Adobe Illustrator 19.2.1, SVG Export Plug-In . SVG Version: 6.00 Build 0)  -->
<svg version="1.1" id="图层_1" xmlns="http://www.w3.org/2000/svg" xmlns:xlink="http://www.w3.org/1999/xlink" x="0px" y="0px"
	 viewBox="0 0 48 48" style="enable-background:new 0 0 48 48;" xml:space="preserve">
<style type="text/css">
	.st0{opacity:0.2;fill:#FFBA15;enable-background:new    ;}
	.st1{fill:#FFBA15;}
</style>
<path class="st0" d="M39.5,2h-3.9c-0.2,2-1.1,3.6-2.2,3.6H14.7c-1.1,0-2-1.5-2.2-3.6h-4C5.6,2,3.3,4.3,3.3,7.2v33.1
	c0,2.9,2.3,5.2,5.2,5.2h31c2.9,0,5.2-2.3,5.2-5.2V7.2C44.7,4.3,42.4,2,39.5,2z"/>
<path class="st1" d="M39.5,0h-3.9v2h3.9c2.9,0,5.2,2.3,5.2,5.2v33.1c0,2.9-2.3,5.2-5.2,5.2h-31c-2.9,0-5.2-2.3-5.2-5.2V7.2
	C3.3,4.3,5.6,2,8.5,2h4V0h-4c-4,0-7.2,3.2-7.2,7.2v33.1c0,4,3.2,7.2,7.2,7.2h31c4,0,7.2-3.2,7.2-7.2V7.2C46.7,3.2,43.5,0,39.5,0z"/>
<path class="st1" d="M30.2,3.1H17.8c-0.8,0-1.5-0.7-1.5-1.5S17,0,17.8,0h12.4c0.8,0,1.5,0.7,1.5,1.5S31,3.1,30.2,3.1z"/>
<path class="st1" d="M35.6,15.8H12.4c-0.8,0-1.5-0.7-1.5-1.5l0,0c0-0.8,0.7-1.5,1.5-1.5h23.3c0.8,0,1.5,0.7,1.5,1.5l0,0
	C37.1,15.1,36.5,15.8,35.6,15.8z"/>
<path class="st1" d="M35.6,24.7H12.4c-0.8,0-1.5-0.7-1.5-1.5l0,0c0-0.8,0.7-1.5,1.5-1.5h23.3c0.8,0,1.5,0.7,1.5,1.5l0,0
	C37.1,24,36.5,24.7,35.6,24.7z"/>
<path class="st1" d="M35.6,33.6H12.4c-0.8,0-1.5-0.7-1.5-1.5l0,0c0-0.8,0.7-1.5,1.5-1.5h23.3c0.8,0,1.5,0.7,1.5,1.5l0,0
	C37.1,32.9,36.5,33.6,35.6,33.6z"/>
<path d="M30.2,16.6"/>
</svg>
