<?xml version="1.0" encoding="utf-8"?>
<!-- Generator: Adobe Illustrator 19.2.1, SVG Export Plug-In . SVG Version: 6.00 Build 0)  -->
<svg version="1.1" id="图层_1" xmlns="http://www.w3.org/2000/svg" xmlns:xlink="http://www.w3.org/1999/xlink" x="0px" y="0px"
	 viewBox="0 0 48 48" style="enable-background:new 0 0 48 48;" xml:space="preserve">
<style type="text/css">
	.st0{fill:#92969C;}
</style>
<g>
	<g>
		<path class="st0" d="M39.5,48h-31c-4,0-7.2-3.2-7.2-7.2V7.8c0-4,3.2-7.2,7.2-7.2h2.9c0.6,0,1,0.5,1,1s-0.5,1-1,1H8.5
			c-2.9,0-5.2,2.3-5.2,5.2v33.1c0,2.9,2.3,5.2,5.2,5.2h31c2.9,0,5.2-2.3,5.2-5.2V7.8c0-2.9-2.3-5.2-5.2-5.2h-2.9c-0.6,0-1-0.5-1-1
			s0.5-1,1-1h2.9c4,0,7.2,3.2,7.2,7.2v33.1C46.7,44.8,43.5,48,39.5,48z"/>
	</g>
	<g>
		<path class="st0" d="M30.2,3.1H17.8c-0.8,0-1.5-0.7-1.5-1.5S17,0,17.8,0h12.4c0.8,0,1.5,0.7,1.5,1.5S31,3.1,30.2,3.1z"/>
	</g>
	<g>
		<g>
			<path class="st0" d="M35.6,15.8H12.4c-0.8,0-1.5-0.7-1.5-1.5v0c0-0.8,0.7-1.5,1.5-1.5h23.3c0.8,0,1.5,0.7,1.5,1.5v0
				C37.1,15.1,36.5,15.8,35.6,15.8z"/>
		</g>
		<g>
			<path class="st0" d="M35.6,24.7H12.4c-0.8,0-1.5-0.7-1.5-1.5v0c0-0.8,0.7-1.5,1.5-1.5h23.3c0.8,0,1.5,0.7,1.5,1.5v0
				C37.1,24,36.5,24.7,35.6,24.7z"/>
		</g>
		<g>
			<path class="st0" d="M35.6,33.6H12.4c-0.8,0-1.5-0.7-1.5-1.5v0c0-0.8,0.7-1.5,1.5-1.5h23.3c0.8,0,1.5,0.7,1.5,1.5v0
				C37.1,32.9,36.5,33.6,35.6,33.6z"/>
		</g>
	</g>
</g>
</svg>
