<?xml version="1.0" encoding="utf-8"?>
<!-- Generator: Adobe Illustrator 19.2.1, SVG Export Plug-In . SVG Version: 6.00 Build 0)  -->
<svg version="1.1" id="图层_1" xmlns="http://www.w3.org/2000/svg" xmlns:xlink="http://www.w3.org/1999/xlink" x="0px" y="0px"
	 viewBox="0 0 48 48" style="enable-background:new 0 0 48 48;" xml:space="preserve">
<style type="text/css">
	.st0{opacity:0.2;fill:#FFBA15;enable-background:new    ;}
	.st1{fill:#FFBA15;}
</style>
<path class="st0" d="M28.6,29.2c7.5,0,13.7,6.2,13.7,13.7v0.9c0,2.5-7.6,2.5-13.7,2.5h-9.4c-6.6-0.1-13.6-0.1-13.6-2.6v-0.9
	c0-7.5,6.1-13.6,13.7-13.6H28.6z"/>
<path class="st0" d="M24,2c-5.7,0-10.3,4.7-10.3,10.4S18.3,22.8,24,22.8s10.3-4.7,10.3-10.4S29.7,2,24,2z"/>
<path class="st1" d="M28.5,27.6h-9.1c-8.4,0-15.3,6.8-15.3,15.2v0.9c0,4.4,6.7,4.4,15.3,4.4h9.1c8.2,0,15.3,0,15.3-4.4v-0.9
	C43.8,34.4,36.9,27.6,28.5,27.6z M41.9,43.6c0,2.4-7.5,2.4-13.4,2.4h-9.1C13,46,6.2,46,6.2,43.6v-0.9c0-7.3,5.9-13.2,13.3-13.2h9.1
	c7.3,0,13.3,5.9,13.3,13.2V43.6L41.9,43.6z"/>
<path class="st1" d="M24,0.1c-6.8,0-12.3,5.6-12.3,12.4c0,6.9,5.5,12.4,12.3,12.4s12.3-5.6,12.3-12.4S30.8,0.1,24,0.1z M24,22.8
	c-5.7,0-10.3-4.7-10.3-10.4S18.3,2,24,2s10.3,4.7,10.3,10.4C34.3,18.2,29.7,22.8,24,22.8z"/>
<path class="st1" d="M24,19.7c-2.3,0-4.3-1-5.7-2.8c-0.3-0.4-0.2-0.9,0.1-1.1c0.3-0.3,0.9-0.2,1.1,0.1c1.1,1.4,2.7,2.2,4.5,2.2
	s3.4-0.8,4.5-2.2c0.3-0.4,0.8-0.4,1.1-0.1c0.3,0.3,0.4,0.8,0.1,1.1C28.3,18.7,26.3,19.7,24,19.7z"/>
</svg>
