<?xml version="1.0" encoding="utf-8"?>
<!-- Generator: Adobe Illustrator 19.2.1, SVG Export Plug-In . SVG Version: 6.00 Build 0)  -->
<svg version="1.1" id="图层_1" xmlns="http://www.w3.org/2000/svg" xmlns:xlink="http://www.w3.org/1999/xlink" x="0px" y="0px"
	 viewBox="0 0 48 48" style="enable-background:new 0 0 48 48;" xml:space="preserve">
<style type="text/css">
	.st0{opacity:0.2;fill:#FFBA15;enable-background:new    ;}
	.st1{fill:#FFBA15;}
</style>
<path class="st0" d="M20.8,11.4c-0.6,0-1,0.4-1,1V38c0,0.6,0.4,1,1,1h6.4c0.6,0,1-0.4,1-1V12.4c0-0.6-0.4-1-1-1H20.8z"/>
<path class="st0" d="M36.7,3.3c-0.6,0-1,0.4-1,1v33.6c0,0.6,0.4,1,1,1h6.4c0.6,0,1-0.4,1-1V4.3c0-0.6-0.4-1-1-1
	C43.1,3.3,36.7,3.3,36.7,3.3z"/>
<path class="st1" d="M47,46.7H1c-0.6,0-1-0.4-1-1l0,0c0-0.6,0.4-1,1-1h46c0.6,0,1,0.4,1,1l0,0C48,46.3,47.6,46.7,47,46.7z"/>
<path class="st0" d="M4.9,20c-0.6,0-1,0.4-1,1v16.9c0,0.6,0.4,1,1,1h6.4c0.6,0,1-0.4,1-1V21c0-0.6-0.4-1-1-1H4.9z"/>
<path class="st1" d="M11.3,18H4.9c-1.7,0-3,1.3-3,3v16.9c0,1.7,1.3,3,3,3h6.4c1.7,0,3-1.3,3-3V21C14.3,19.3,13,18,11.3,18z
	 M12.3,37.9c0,0.6-0.4,1-1,1H4.9c-0.6,0-1-0.4-1-1V21c0-0.6,0.4-1,1-1h6.4c0.6,0,1,0.4,1,1V37.9z"/>
<path class="st1" d="M27.2,9.6h-6.4c-1.7,0-3,1.3-3,3v25.2c0,1.7,1.3,3,3,3h6.4c1.7,0,3-1.3,3-3V12.6C30.2,11,28.9,9.6,27.2,9.6z
	 M28.2,37.9c0,0.6-0.4,1-1,1h-6.4c-0.6,0-1-0.4-1-1V12.6c0-0.6,0.4-1,1-1h6.4c0.6,0,1,0.4,1,1V37.9z"/>
<path class="st1" d="M43.1,1.3h-6.4c-1.7,0-3,1.3-3,3v33.6c0,1.7,1.3,3,3,3h6.4c1.7,0,3-1.3,3-3V4.3C46.1,2.6,44.8,1.3,43.1,1.3z
	 M44.1,37.9c0,0.6-0.4,1-1,1h-6.4c-0.6,0-1-0.4-1-1V4.3c0-0.6,0.4-1,1-1h6.4c0.6,0,1,0.4,1,1V37.9z"/>
<path class="st1" d="M41.2,6.1H38c-0.3,0-0.6,0.3-0.6,0.6l0,0v5.2c0,0.3,0.3,0.6,0.6,0.6s0.6-0.3,0.6-0.6V7.3h2.5
	c0.3,0,0.6-0.3,0.6-0.6l0,0C41.8,6.4,41.5,6.1,41.2,6.1z"/>
<circle class="st1" cx="38" cy="13.8" r="0.6"/>
</svg>
