<?xml version="1.0" encoding="utf-8"?>
<!-- Generator: Adobe Illustrator 19.2.1, SVG Export Plug-In . SVG Version: 6.00 Build 0)  -->
<svg version="1.1" id="图层_1" xmlns="http://www.w3.org/2000/svg" xmlns:xlink="http://www.w3.org/1999/xlink" x="0px" y="0px"
	 viewBox="0 0 32 32" style="enable-background:new 0 0 32 32;" xml:space="preserve">
<style type="text/css">
	.st0{opacity:0.15;fill:#266DEC;}
	.st1{fill:#266DEC;}
</style>
<g>
	<path class="st0" d="M16,5.5c3.3,0,5.9,2.6,5.9,5.9s-2.6,5.9-5.9,5.9s-5.9-2.6-5.9-5.9S12.7,5.5,16,5.5"/>
	<g>
		<g>
			<path class="st1" d="M16,3.9c-4.1,0-7.5,3.4-7.5,7.5c0,4.1,3.4,7.5,7.5,7.5s7.5-3.4,7.5-7.5C23.5,7.2,20.1,3.9,16,3.9z M16,17.3
				c-3.3,0-5.9-2.6-5.9-5.9c0-3.3,2.6-5.9,5.9-5.9s5.9,2.6,5.9,5.9C21.9,14.6,19.3,17.3,16,17.3z"/>
			<g>
				<path class="st1" d="M26,28.9c-0.4,0-0.8-0.4-0.8-0.8c0-5.1-4.1-9.2-9.2-9.2S6.8,23,6.8,28.1c0,0.4-0.4,0.8-0.8,0.8
					s-0.8-0.4-0.8-0.8c0-6,4.8-10.8,10.8-10.8c6,0,10.8,4.8,10.8,10.8C26.8,28.6,26.4,28.9,26,28.9z"/>
			</g>
		</g>
		<g>
			<path class="st1" d="M31.2,25.1c-0.4,0-0.8-0.4-0.8-0.8c0-2.7-1.8-5.1-4.5-5.8c-0.3-0.1-0.6-0.4-0.6-0.7c0-0.4,0.2-0.7,0.5-0.8
				c1.7-0.6,2.9-2.2,2.9-4.1c0-2.4-1.9-4.3-4.3-4.3c-0.4,0-0.8-0.4-0.8-0.8s0.4-0.8,0.8-0.8c3.3,0,5.9,2.7,5.9,5.9
				c0,1.9-0.9,3.6-2.4,4.7c2.4,1.3,4,3.9,4,6.7C32,24.7,31.6,25.1,31.2,25.1z"/>
		</g>
		<g>
			<path class="st1" d="M0.8,25.1c0.4,0,0.8-0.4,0.8-0.8c0-2.7,1.8-5.1,4.5-5.8c0.3-0.1,0.6-0.4,0.6-0.7c0-0.4-0.2-0.7-0.5-0.8
				c-1.7-0.6-2.9-2.2-2.9-4.1c0-2.4,1.9-4.3,4.3-4.3c0.4,0,0.8-0.4,0.8-0.8S8,6.9,7.5,6.9c-3.3,0-5.9,2.7-5.9,5.9
				c0,1.9,0.9,3.6,2.4,4.7c-2.4,1.3-4,3.9-4,6.7C0,24.7,0.4,25.1,0.8,25.1z"/>
		</g>
	</g>
</g>
</svg>
