<?xml version="1.0" encoding="utf-8"?>
<!-- Generator: Adobe Illustrator 19.2.1, SVG Export Plug-In . SVG Version: 6.00 Build 0)  -->
<svg version="1.1" id="图层_1" xmlns="http://www.w3.org/2000/svg" xmlns:xlink="http://www.w3.org/1999/xlink" x="0px" y="0px"
	 viewBox="0 0 32 32" style="enable-background:new 0 0 32 32;" xml:space="preserve">
<style type="text/css">
	.st0{fill:#266DEC;}
	.st1{opacity:0.15;fill:#266DEC;}
</style>
<g>
	<path class="st0" d="M27.2,15.9"/>
</g>
<path class="st1" d="M16,21.7c-5.3,0-9.9,3.5-11.3,8.5l22.6-0.1C25.9,25.2,21.3,21.7,16,21.7z"/>
<path class="st0" d="M3.6,13.1v-1C3.6,5.5,9,0.2,15.5,0.2h1c6.5,0,11.9,5.3,11.9,11.9v1h-1.6v-1c0-5.7-4.6-10.3-10.3-10.3h-1
	C9.8,1.8,5.2,6.4,5.2,12.1v1H3.6z"/>
<path class="st0" d="M3.2,16.8L3.2,16.8c-1.1,0-2-0.9-2-2v-3c0-1.1,0.9-2,2-2h0c1.1,0,2,0.9,2,2v3C5.2,15.9,4.3,16.8,3.2,16.8z"/>
<path class="st0" d="M28.8,16.8L28.8,16.8c-1.1,0-2-0.9-2-2v-3c0-1.1,0.9-2,2-2h0c1.1,0,2,0.9,2,2v3C30.8,15.9,29.9,16.8,28.8,16.8z
	"/>
<path class="st1" d="M16,6c3.8,0,6.9,3.1,6.9,6.9s-3.1,6.9-6.9,6.9s-6.9-3.1-6.9-6.9S12.2,6,16,6"/>
<path class="st0" d="M16,4.4c-4.7,0-8.5,3.8-8.5,8.5c0,4.7,3.8,8.5,8.5,8.5s8.5-3.8,8.5-8.5C24.5,8.2,20.7,4.4,16,4.4z M16,19.8
	c-3.8,0-6.9-3.1-6.9-6.9C9.1,9.1,12.2,6,16,6s6.9,3.1,6.9,6.9C22.9,16.7,19.8,19.8,16,19.8z"/>
<path class="st0" d="M16,20.1c-6.4,0-11.9,4.5-13.1,10.8c0,0.2,0,0.5,0.2,0.7c0.2,0.2,0.4,0.3,0.6,0.3c0,0,0,0,0,0l24.6-0.1
	c0.2,0,0.5-0.1,0.6-0.3c0.2-0.2,0.2-0.4,0.2-0.7C27.9,24.6,22.3,20.1,16,20.1z M4.7,30.2c1.4-5,6-8.5,11.3-8.5
	c5.2,0,9.8,3.5,11.3,8.4L4.7,30.2z"/>
</svg>
