<?xml version="1.0" encoding="utf-8"?>
<!-- Generator: Adobe Illustrator 19.2.1, SVG Export Plug-In . SVG Version: 6.00 Build 0)  -->
<svg version="1.1" id="图层_1" xmlns="http://www.w3.org/2000/svg" xmlns:xlink="http://www.w3.org/1999/xlink" x="0px" y="0px"
	 viewBox="0 0 32 32" style="enable-background:new 0 0 32 32;" xml:space="preserve">
<style type="text/css">
	.st0{opacity:0.15;fill:#266DEC;enable-background:new    ;}
	.st1{fill:#266DEC;}
</style>
<path class="st0" d="M16,1.6c7.9,0,14.4,6.5,14.4,14.4S23.9,30.4,16,30.4S1.6,24,1.6,16S8.1,1.6,16,1.6"/>
<path class="st1" d="M16.1,23.3c-0.8,0-1.5,0.7-1.5,1.5s0.7,1.5,1.5,1.5s1.5-0.7,1.5-1.5C17.6,23.9,16.9,23.3,16.1,23.3z M16.1,5.8
	c-3.1,0-5.6,2.5-5.6,5.5c0,0.5,0.4,0.9,0.9,0.9s0.9-0.4,0.9-0.9c0-2.1,1.6-3.7,3.7-3.7s3.7,1.7,3.7,3.7c0,0.9-1,1.9-2,2.8
	c-1.3,1.3-2.7,2.7-2.7,4.5v2c0,0.5,0.4,0.9,0.9,0.9c0.5,0,0.9-0.4,0.9-0.9v-2c0-1,1.1-2.1,2.1-3.2c1.2-1.2,2.5-2.5,2.5-4.2
	C21.7,8.3,19.2,5.8,16.1,5.8z"/>
<path class="st1" d="M16,0C7.2,0,0,7.2,0,16s7.2,16,16,16s16-7.2,16-16S24.9,0,16,0z M16,30.4C8.1,30.4,1.6,24,1.6,16
	S8.1,1.6,16,1.6S30.4,8.1,30.4,16S24,30.4,16,30.4z"/>
</svg>
