<?xml version="1.0" encoding="utf-8"?>
<!-- Generator: Adobe Illustrator 19.2.1, SVG Export Plug-In . SVG Version: 6.00 Build 0)  -->
<svg version="1.1" id="图层_1" xmlns="http://www.w3.org/2000/svg" xmlns:xlink="http://www.w3.org/1999/xlink" x="0px" y="0px"
	 viewBox="0 0 32 32" style="enable-background:new 0 0 32 32;" xml:space="preserve">
<style type="text/css">
	.st0{opacity:0.15;fill:#266DEC;enable-background:new    ;}
	.st1{fill:#266DEC;}
</style>
<g>
	<path class="st0" d="M27.9,14.8c-0.7,0.4-1.5,0.6-2.4,0.6c-1.5,0-2.9-0.7-3.9-1.9c-0.2-0.3-0.6-0.4-0.9-0.4l0,0
		c-0.3,0-0.7,0.2-0.9,0.4c-0.9,1.2-2.3,1.9-3.8,1.9s-2.9-0.7-3.8-1.9c-0.2-0.3-0.6-0.4-0.9-0.4l0,0c-0.3,0-0.7,0.2-0.9,0.4
		c-1,1.2-2.4,1.9-3.8,1.9c-0.9,0-1.7-0.2-2.3-0.5l0,0c-1.6-0.9-2.7-2.7-2.7-4.7c0-0.6,0-0.9,0.2-1.6C2,8.1,4.5,3.2,4.5,3.1
		c0.6-1.3,1.1-1.6,2.2-1.6h18.6c1,0,1.8,0.5,2.3,1.6l0,0l2.7,5.4c0.2,0.6,0.2,0.9,0.2,1.5C30.5,12.1,29.5,13.9,27.9,14.8z"/>
	<path class="st1" d="M31.6,7.8L31.6,7.8L29,2.7C28.2,1,26.7,0,24.9,0H7.2c-2,0-3.1,0.8-4.1,2.7c0,0-2.7,5-2.8,5.2C0,8.8,0,9.4,0,10
		c0,2.6,1.4,4.9,3.7,6.2c0,0,1.4,0.7,3.3,0.8c1.6,0,3.2-0.6,4.5-1.6c1.2,1,2.8,1.6,4.5,1.6c1.6,0,3.2-0.6,4.5-1.6
		c1.3,1.1,2.9,1.6,4.5,1.6c1.3,0,2.4-0.3,3.4-0.8C30.6,15,32,12.6,32,10C32,9.4,32,8.8,31.6,7.8z M27.9,14.8
		c-0.7,0.4-1.5,0.6-2.4,0.6c-1.5,0-2.9-0.7-3.9-1.9c-0.2-0.3-0.6-0.4-0.9-0.4l0,0c-0.3,0-0.7,0.2-0.9,0.4c-0.9,1.2-2.3,1.9-3.8,1.9
		s-2.9-0.7-3.8-1.9c-0.2-0.3-0.6-0.4-0.9-0.4l0,0c-0.3,0-0.7,0.2-0.9,0.4c-1,1.2-2.4,1.9-3.8,1.9c-0.9,0-1.7-0.2-2.3-0.5l0,0
		c-1.6-0.9-2.7-2.7-2.7-4.7c0-0.6,0-0.9,0.2-1.6C2,8.1,4.5,3.2,4.5,3.1c0.6-1.3,1.1-1.6,2.2-1.6h18.6c1,0,1.8,0.5,2.3,1.6l0,0
		l2.7,5.4c0.2,0.6,0.2,0.9,0.2,1.5C30.5,12.1,29.5,13.9,27.9,14.8z"/>
	<path class="st1" d="M25.6,9.3H6.4C6,9.3,5.7,8.9,5.7,8.5l0,0c0-0.4,0.3-0.8,0.8-0.8h19.1c0.4,0,0.8,0.3,0.8,0.8l0,0
		C26.3,8.9,26,9.3,25.6,9.3z"/>
	<g>
		<path class="st1" d="M25.8,32H6.2c-1.9,0-3.4-1.5-3.4-3.4v-9.4c0-0.4,0.4-0.8,0.8-0.8s0.8,0.4,0.8,0.8v9.4c0,1,0.8,1.8,1.8,1.8
			h19.6c1,0,1.8-0.8,1.8-1.8v-9.4c0-0.4,0.4-0.8,0.8-0.8s0.8,0.4,0.8,0.8v9.4C29.2,30.5,27.6,32,25.8,32z"/>
	</g>
</g>
</svg>
