<?xml version="1.0" encoding="utf-8"?>
<!-- Generator: Adobe Illustrator 19.2.1, SVG Export Plug-In . SVG Version: 6.00 Build 0)  -->
<svg version="1.1" id="图层_1" xmlns="http://www.w3.org/2000/svg" xmlns:xlink="http://www.w3.org/1999/xlink" x="0px" y="0px"
	 viewBox="0 0 32 32" style="enable-background:new 0 0 32 32;" xml:space="preserve">
<style type="text/css">
	.st0{opacity:0.15;fill:#266DEC;}
	.st1{fill:#266DEC;}
</style>
<path class="st0" d="M28.5,10.6C28.4,10.8,28,11,27.9,11l-8.3,2c-0.8,0.1-1.1,0-1.2-0.1s0-0.5,0-0.6l1-2.3c0.1-0.2,0.1-0.4,0-0.6
	c-0.8-1-5.4-1.9-7.4-1.9c-3.5,0-6,1.3-7.7,2.7C5.4,7.8,7,6,9.1,4.9c5.2-2.7,11.5-0.3,11.8-0.2c0.4,0.2,0.9,0,1-0.4l1-2.3
	c0.1-0.2,0.2-0.3,0.4-0.4c0.2-0.1,0.4,0,0.6,0.2l4.5,8C28.5,10.2,28.6,10.4,28.5,10.6z"/>
<path class="st1" d="M29.8,9.2c0,0-4.3-8-4.6-8.4c-0.1-0.2-1-0.9-2-0.7c-0.4,0.1-1.1,0.3-1.6,1.3L20.7,3c-2-0.6-7.6-2.1-12.4,0.5
	C4.8,5.3,2.4,8.9,1.3,14c-0.1,0.4,0.1,0.8,0.5,0.9c0.4,0.1,0.8-0.2,0.9-0.5c0.2-0.3,3.8-8.3,14.8-4.4l-0.7,1.6
	c-0.1,0.1-0.5,1.3,0.2,2.2c0.5,0.6,1.4,0.9,2.8,0.7l8.4-2c0.1,0,1.2-0.4,1.7-1.4C30.1,10.7,30.3,10.1,29.8,9.2z M28.5,10.6
	C28.4,10.8,28,11,27.9,11l-8.3,2c-0.8,0.1-1.1,0-1.2-0.1c-0.1-0.1,0-0.5,0-0.6l1-2.3c0.1-0.2,0.1-0.4,0-0.6c-0.8-1-5.4-1.9-7.4-1.9
	c-3.5,0-6,1.3-7.7,2.7C5.4,7.8,7,6,9.1,4.9c5.2-2.7,11.5-0.3,11.8-0.2c0.4,0.2,0.9,0,1-0.4l1-2.3c0.1-0.2,0.2-0.3,0.4-0.4
	c0.2-0.1,0.4,0,0.6,0.2l4.5,8C28.5,10.2,28.6,10.4,28.5,10.6z"/>
<path class="st0" d="M3.5,21.1c0.1-0.2,0.5-0.4,0.6-0.4l8.3-2c0.8-0.1,1.1,0,1.2,0.1s0,0.5,0,0.6l-1,2.3c-0.1,0.2-0.1,0.4,0,0.6
	c0.8,1,5.4,1.9,7.4,1.9c3.5,0,6-1.3,7.7-2.7c-1.1,2.4-2.7,4.2-4.8,5.3c-5.2,2.7-11.5,0.3-11.8,0.2c-0.4-0.2-0.9,0-1,0.4l-1,2.3
	C9,29.9,8.9,30,8.7,30.1c-0.2,0.1-0.4,0-0.6-0.2l-4.5-8C3.5,21.5,3.4,21.3,3.5,21.1z"/>
<path class="st1" d="M30.2,16.8c-0.4-0.1-0.8,0.2-0.9,0.5c-0.2,0.3-3.8,8.3-14.8,4.4l0.7-1.6c0.1-0.1,0.5-1.3-0.2-2.2
	c-0.5-0.6-1.4-0.9-2.8-0.7l-8.4,2c-0.1,0-1.2,0.4-1.7,1.4c-0.2,0.4-0.4,1,0.1,1.9c0,0,4.3,8,4.6,8.4c0.1,0.2,1,0.9,2,0.7
	c0.4-0.1,1.1-0.3,1.6-1.3l0.9-1.6c2,0.6,7.6,2.1,12.4-0.5c3.5-1.8,5.9-5.4,7-10.5C30.8,17.3,30.6,16.9,30.2,16.8z M22.9,26.8
	c-5.2,2.7-11.5,0.3-11.8,0.2c-0.4-0.2-0.9,0-1,0.4l-1,2.3C9,29.9,8.9,30,8.7,30.1c-0.2,0.1-0.4,0-0.6-0.2l-4.5-8
	c-0.1-0.4-0.2-0.6-0.1-0.8c0.1-0.2,0.5-0.4,0.6-0.4l8.3-2c0.8-0.1,1.1,0,1.2,0.1c0.1,0.1,0,0.5,0,0.6l-1,2.3c-0.1,0.2-0.1,0.4,0,0.6
	c0.8,1,5.4,1.9,7.4,1.9c3.5,0,6-1.3,7.7-2.7C26.6,23.9,25,25.7,22.9,26.8z"/>
</svg>
