<?xml version="1.0" encoding="utf-8"?>
<!-- Generator: Adobe Illustrator 19.2.1, SVG Export Plug-In . SVG Version: 6.00 Build 0)  -->
<svg version="1.1" id="图层_1" xmlns="http://www.w3.org/2000/svg" xmlns:xlink="http://www.w3.org/1999/xlink" x="0px" y="0px"
	 viewBox="0 0 48 48" style="enable-background:new 0 0 48 48;" xml:space="preserve">
<style type="text/css">
	.st0{fill:#FFFFFF;}
</style>
<g>
	<path class="st0" d="M47,17.3c-0.6,0-1-0.4-1-1V5c0-1.7-1.3-3-3-3h-9.7c-0.6,0-1-0.4-1-1s0.4-1,1-1H43c2.8,0,5,2.2,5,5v11.3
		C48,16.9,47.6,17.3,47,17.3z"/>
</g>
<g>
	<path class="st0" d="M1,17.3c-0.6,0-1-0.4-1-1V5c0-2.8,2.2-5,5-5h9.7c0.6,0,1,0.4,1,1s-0.4,1-1,1H5C3.3,2,2,3.3,2,5v11.3
		C2,16.9,1.6,17.3,1,17.3z"/>
</g>
<g>
	<path class="st0" d="M14.7,48H5c-2.8,0-5-2.2-5-5V31.6c0-0.6,0.4-1,1-1s1,0.4,1,1V43c0,1.7,1.3,3,3,3h9.7c0.6,0,1,0.4,1,1
		S15.3,48,14.7,48z"/>
</g>
<g>
	<path class="st0" d="M43,48h-9.7c-0.6,0-1-0.4-1-1s0.4-1,1-1H43c1.7,0,3-1.3,3-3V31.6c0-0.6,0.4-1,1-1s1,0.4,1,1V43
		C48,45.8,45.8,48,43,48z"/>
</g>
<path class="st0" d="M46.7,25.3H1.3C0.6,25.3,0,24.7,0,24v0c0-0.7,0.6-1.3,1.3-1.3h45.4c0.7,0,1.3,0.6,1.3,1.3v0
	C48,24.7,47.4,25.3,46.7,25.3z"/>
<path class="st0" d="M38,17.3H10c-0.6,0-1-0.4-1-1v0c0-0.6,0.4-1,1-1h28c0.6,0,1,0.4,1,1v0C39,16.8,38.6,17.3,38,17.3z"/>
<path class="st0" d="M38,32.6H10c-0.6,0-1-0.4-1-1v0c0-0.6,0.4-1,1-1h28c0.6,0,1,0.4,1,1v0C39,32.2,38.6,32.6,38,32.6z"/>
</svg>
