<?xml version="1.0" encoding="utf-8"?>
<!-- Generator: Adobe Illustrator 19.2.1, SVG Export Plug-In . SVG Version: 6.00 Build 0)  -->
<svg version="1.1" id="图层_1" xmlns="http://www.w3.org/2000/svg" xmlns:xlink="http://www.w3.org/1999/xlink" x="0px" y="0px"
	 viewBox="0 0 28 28" style="enable-background:new 0 0 28 28;" xml:space="preserve">
<style type="text/css">
	.st0{fill:#818998;}
</style>
<path class="st0" d="M14,27.5c-7.4,0-13.5-6-13.5-13.5S6.6,0.5,14,0.5s13.5,6,13.5,13.5c0,2.3-0.6,4.6-1.7,6.5
	c-0.2,0.3-0.6,0.5-1,0.3c-0.3-0.2-0.5-0.6-0.3-1c1-1.8,1.6-3.8,1.6-5.9c0-6.6-5.4-12-12-12C7.5,2,2.1,7.4,2.1,14s5.4,12,12,12
	c3,0,5.9-1.1,8.1-3.1c0.3-0.3,0.7-0.2,1,0c0.3,0.3,0.2,0.7,0,1C20.6,26.3,17.4,27.5,14,27.5z"/>
<g>
	<path class="st0" d="M13.2,17.2L13.2,17.2c-0.7,0-1.2-0.5-1.2-1.2V7.2C12,6.5,12.5,6,13.2,6h0c0.7,0,1.2,0.5,1.2,1.2V16
		C14.4,16.7,13.9,17.2,13.2,17.2z"/>
	<path class="st0" d="M12,16L12,16c0-0.7,0.5-1.2,1.2-1.2h6c0.7,0,1.2,0.5,1.2,1.2v0c0,0.7-0.5,1.2-1.2,1.2h-6
		C12.5,17.2,12,16.7,12,16z"/>
</g>
</svg>
